<?xml version="1.0" encoding="UTF-8"?>
<svg width="32px" height="32px" viewBox="0 0 32 32" version="1.1" xmlns="http://www.w3.org/2000/svg" xmlns:xlink="http://www.w3.org/1999/xlink">
    <title>random</title>
    <g id="Page-1" stroke="none" stroke-width="1" fill="none" fill-rule="evenodd">
        <g id="random" fill="#000000" fill-rule="nonzero">
            <path d="M3.45425,27.0216875 C2.643,27.0216875 1.983,27.6816875 1.983,28.4929375 C1.983,29.3041875 2.643,29.9641875 3.45425,29.9641875 C4.2655,29.9641875 4.9255,29.3041875 4.9255,28.4929375 C4.9255,27.6816875 4.2655,27.0216875 3.45425,27.0216875 Z M3.45425,29.00475 C3.1720625,29.00475 2.9425,28.7751875 2.9425,28.493 C2.9425,28.2108125 3.1720625,27.98125 3.45425,27.98125 C3.736375,27.98125 3.966,28.2108125 3.966,28.493 C3.966,28.7751875 3.7364375,29.00475 3.45425,29.00475 Z" id="Shape"></path>
            <path d="M7.9159375,22.5600625 C7.1046875,22.5600625 6.4446875,23.2200625 6.4446875,24.0313125 C6.4446875,24.8425625 7.1046875,25.5025625 7.9159375,25.5025625 C8.7271875,25.5025625 9.3871875,24.8425625 9.3871875,24.0313125 C9.3871875,23.22 8.7271875,22.5600625 7.9159375,22.5600625 Z M7.9159375,24.5430625 C7.63375,24.5430625 7.4041875,24.3135 7.4041875,24.0313125 C7.4041875,23.749125 7.6338125,23.5195625 7.9159375,23.5195625 C8.1980625,23.5195625 8.4276875,23.749125 8.4276875,24.0313125 C8.4276875,24.3135 8.198125,24.5430625 7.9159375,24.5430625 Z" id="Shape"></path>
            <path d="M12.377625,18.0983125 C11.566375,18.0983125 10.906375,18.7583125 10.906375,19.5695625 C10.906375,20.3808125 11.566375,21.0408125 12.377625,21.0408125 C13.188875,21.0408125 13.848875,20.3808125 13.848875,19.5695625 C13.8488125,18.7583125 13.188875,18.0983125 12.377625,18.0983125 Z M12.377625,20.081375 C12.0954375,20.081375 11.865875,19.8518125 11.865875,19.569625 C11.865875,19.2874375 12.0955,19.057875 12.377625,19.057875 C12.65975,19.057875 12.889375,19.2874375 12.889375,19.569625 C12.889375,19.8518125 12.6598125,20.081375 12.377625,20.081375 Z" id="Shape"></path>
            <path d="M20.80525,0 L9.6104375,11.19475 L14.583875,16.1681875 L0,16.1681875 L0,32 L15.8318125,32 L15.8318125,17.416125 L20.80525,22.3895625 L32,11.19475 L20.80525,0 Z M14.872375,31.0405 L14.872375,31.0405 L0.9595625,31.0405 L0.9595625,17.1276875 L14.872375,17.1276875 L14.872375,31.0405 Z M10.9674375,11.19475 L20.80525,1.357 L30.643125,11.1948125 L20.80525,21.0325625 L10.9674375,11.19475 Z" id="Shape"></path>
            <path d="M15.5358125,10.101625 C14.9621875,9.528 14.0288125,9.528 13.455125,10.101625 C12.8815625,10.67525 12.8815625,11.608625 13.455125,12.1823125 C13.7419375,12.469125 14.1186875,12.6125 14.4955,12.6125 C14.8723125,12.6125 15.249,12.469125 15.535875,12.1823125 C16.109375,11.60875 16.109375,10.6753125 15.5358125,10.101625 Z M14.857375,11.50375 C14.6578125,11.70325 14.333125,11.70325 14.1336875,11.50375 C13.934125,11.3041875 13.934125,10.9795 14.1336875,10.78 C14.2334375,10.68025 14.3644375,10.630375 14.4955625,10.630375 C14.6265625,10.630375 14.757625,10.68025 14.8574375,10.78 C15.0568125,10.9795625 15.0568125,11.3043125 14.857375,11.50375 Z" id="Shape"></path>
            <path d="M21.8455,16.4114375 C21.567625,16.1335625 21.1981875,15.9805 20.8051875,15.9805 C20.4121875,15.9805 20.0428125,16.1335 19.764875,16.411375 C19.487,16.68925 19.3339375,17.0586875 19.3339375,17.45175 C19.3339375,17.8448125 19.4869375,18.21425 19.764875,18.492125 C20.0516875,18.7789375 20.4284375,18.922375 20.8051875,18.922375 C21.1819375,18.922375 21.55875,18.7789375 21.8455,18.492125 C22.1234375,18.21425 22.2764375,17.84475 22.2764375,17.45175 C22.2764375,17.05875 22.123375,16.68925 21.8455,16.4114375 Z M21.1670625,17.8135625 C20.9675,18.013 20.642875,18.013 20.443375,17.8135625 C20.3466875,17.716875 20.2935,17.5884375 20.2935,17.4516875 C20.2935,17.3150625 20.34675,17.1865 20.443375,17.0898125 C20.5400625,16.993125 20.6685,16.94 20.80525,16.94 C20.9419375,16.94 21.0704375,16.9931875 21.167125,17.089875 C21.2638125,17.1865625 21.317,17.315 21.317,17.4516875 C21.317,17.5884375 21.26375,17.716875 21.1670625,17.8135625 Z" id="Shape"></path>
            <path d="M21.8455,10.101625 C21.2718125,9.5279375 20.3385,9.528 19.7649375,10.101625 C19.487,10.3795 19.334,10.749 19.334,11.142 C19.334,11.535 19.487,11.9045 19.7649375,12.182375 C20.05175,12.469125 20.4285,12.6125625 20.80525,12.6125625 C21.182,12.6125625 21.55875,12.469125 21.8455625,12.182375 C22.1235,11.9045 22.2765,11.535 22.2765,11.142 C22.2765,10.749 22.1234375,10.3795 21.8455,10.101625 Z M21.1670625,11.50375 C20.9675,11.7031875 20.642875,11.7031875 20.443375,11.50375 C20.3466875,11.4070625 20.2935,11.278625 20.2935,11.141875 C20.2935,11.0051875 20.34675,10.8766875 20.443375,10.78 C20.543125,10.68025 20.674125,10.630375 20.80525,10.630375 C20.936375,10.630375 21.0673125,10.68025 21.167125,10.78 C21.2638125,10.8766875 21.317,11.005125 21.317,11.141875 C21.317,11.278625 21.26375,11.407125 21.1670625,11.50375 Z" id="Shape"></path>
            <path d="M21.8455,3.7918125 C21.2718125,3.218125 20.3385,3.2181875 19.7649375,3.7918125 C19.487,4.0696875 19.334,4.4391875 19.334,4.8321875 C19.334,5.2251875 19.4870625,5.5946875 19.7649375,5.8725 C20.0428125,6.1504375 20.41225,6.3034375 20.80525,6.3034375 C21.19825,6.3034375 21.567625,6.1504375 21.8455625,5.8725625 C22.1234375,5.5946875 22.2765,5.22525 22.2765,4.8321875 C22.2765,4.439125 22.1234375,4.0696875 21.8455,3.7918125 Z M21.1670625,5.1939375 C21.070375,5.290625 20.9419375,5.34375 20.8051875,5.34375 C20.6684375,5.34375 20.54,5.2905625 20.4433125,5.193875 C20.346625,5.0971875 20.2934375,4.96875 20.2934375,4.8320625 C20.2934375,4.6955 20.3466875,4.5669375 20.4433125,4.47025 C20.5430625,4.3705 20.6740625,4.320625 20.8051875,4.320625 C20.9363125,4.320625 21.06725,4.3705 21.1670625,4.47025 C21.26375,4.5669375 21.3169376,4.695375 21.3169376,4.832125 C21.317,4.96875 21.26375,5.0973125 21.1670625,5.1939375 Z" id="Shape"></path>
            <path d="M28.155375,10.101625 C27.5818125,9.528 26.6484375,9.528 26.07475,10.101625 C25.501125,10.67525 25.501125,11.608625 26.07475,12.1823125 C26.3615625,12.4690625 26.7383125,12.6124375 27.115125,12.6124375 C27.491875,12.6124375 27.868625,12.4690625 28.1554375,12.18225 C28.729,11.608625 28.729,10.67525 28.155375,10.101625 Z M27.4769375,11.5039375 C27.277375,11.703375 26.9526875,11.703375 26.753125,11.5039375 C26.5535625,11.3043125 26.5535625,10.979625 26.753125,10.780125 C26.852875,10.680375 26.984,10.6305 27.1150625,10.6305 C27.246125,10.6305 27.377125,10.680375 27.4769375,10.780125 C27.6764375,10.979625 27.6764375,11.304375 27.4769375,11.5039375 Z" id="Shape"></path>
        </g>
    </g>
</svg>