<svg width="33" height="33" viewBox="0 0 33 33" fill="none" xmlns="http://www.w3.org/2000/svg">
<path fill-rule="evenodd" clip-rule="evenodd" d="M16.0499 32.3723C24.9141 32.3723 32.0999 25.1865 32.0999 16.3224C32.0999 7.45827 24.9141 0.272461 16.0499 0.272461C7.1858 0.272461 0 7.45827 0 16.3224C0 25.1865 7.1858 32.3723 16.0499 32.3723ZM15.8759 17.431H15.8368V27.0995C15.598 27.3477 15.207 27.3738 14.7648 27.1185L7.31693 22.8177C6.58962 22.3977 6 21.3764 6 20.5365V12.5429C6 12.0633 6.19243 11.747 6.49274 11.6417L15.5216 16.797C15.6627 16.9932 15.7831 17.209 15.8759 17.431ZM9.77884 22.1958L11.2654 23.0541V21.4963L9.77884 20.638V22.1958ZM11.9819 20.0194C12.2399 19.9087 12.4224 19.772 12.5295 19.6091L12.5294 19.6091C12.6365 19.4433 12.69 19.2175 12.69 18.9317C12.69 18.3745 12.5143 17.85 12.1629 17.3583C11.8116 16.8637 11.3009 16.423 10.6311 16.0363C10.3758 15.8889 10.1109 15.7651 9.83639 15.665C9.56189 15.5648 9.25856 15.4801 8.92638 15.4109V16.785C9.20639 16.7541 9.4754 16.765 9.73345 16.8177C9.99148 16.8675 10.2317 16.9566 10.4541 17.085C10.6901 17.2213 10.8741 17.3858 11.0059 17.5786C11.1376 17.7684 11.2035 17.9655 11.2035 18.1697C11.2035 18.3039 11.1664 18.4167 11.0923 18.5081C11.0209 18.6011 10.9071 18.6783 10.7506 18.7397L10.4871 18.8413C10.1961 18.9592 10.0053 19.0854 9.91471 19.2198C9.82413 19.3513 9.77884 19.5367 9.77884 19.7759V19.9903L11.2655 20.8485V20.6516C11.2655 20.5203 11.2943 20.4173 11.3519 20.3427C11.4096 20.2651 11.5318 20.1897 11.7184 20.1166L11.9819 20.0194ZM17.3828 5.58787L25.1258 10.0668L25.1258 10.0669C25.7366 10.4202 25.834 10.958 25.4183 11.3703L16.816 16.2929C16.343 16.4132 15.8014 16.414 15.3275 16.2956L6.73452 11.3891C6.29641 10.9745 6.38704 10.4256 7.00727 10.0669L14.7502 5.58787C15.4772 5.16732 16.6559 5.16732 17.3828 5.58787ZM16.1608 11.7251L16.3479 11.8299L16.348 11.8299L18.0327 10.886L17.8609 10.7898C17.7463 10.7256 17.6746 10.6488 17.6458 10.5595C17.6144 10.4686 17.6256 10.3198 17.6793 10.1129L17.7603 9.82359C17.8262 9.53284 17.8219 9.29855 17.7472 9.12077C17.67 8.94157 17.5066 8.78212 17.2572 8.64235C16.771 8.37003 16.2028 8.27478 15.5525 8.3567C14.8998 8.43718 14.1938 8.6901 13.4347 9.11539C13.1454 9.27751 12.8706 9.45996 12.6104 9.66277C12.3502 9.86558 12.0853 10.1024 11.8158 10.3732L13.0147 11.0449C13.164 10.773 13.3429 10.5316 13.5514 10.3207C13.7573 10.1083 13.9863 9.93158 14.2382 9.79043C14.5058 9.6405 14.7652 9.55226 15.0163 9.52566C15.2649 9.49758 15.4783 9.53347 15.6565 9.63329C15.7736 9.69889 15.8487 9.788 15.8817 9.90066C15.9179 10.0116 15.9135 10.1538 15.8686 10.3273L15.7913 10.6187C15.711 10.9432 15.7009 11.1798 15.7612 11.3286C15.8189 11.476 15.9521 11.6082 16.1608 11.7251ZM16.913 12.1465L18.2722 12.908H18.2723L19.9569 11.9641L18.5977 11.2026L16.913 12.1465ZM16.6582 16.7741L25.6429 11.6326C25.959 11.7278 26.1633 12.0488 26.1633 12.5429V20.5365C26.1633 21.3764 25.5737 22.3977 24.8464 22.8177L17.3985 27.1185C16.9301 27.389 16.519 27.3436 16.2856 27.0529V17.4345C16.3823 17.2025 16.5092 16.9774 16.6582 16.7741ZM20.4195 23.4627L21.906 22.6045L21.9061 22.6045V21.0465L20.4195 21.9048V23.4627ZM22.6226 18.7424C22.8806 18.3337 23.0631 17.9862 23.1702 17.6997V17.6998C23.2773 17.4104 23.3308 17.1228 23.3307 16.8369C23.3307 16.2797 23.155 15.9581 22.8036 15.8721C22.4523 15.7833 21.9416 15.9322 21.2718 16.3189C21.0165 16.4663 20.7516 16.6485 20.4771 16.8653C20.2026 17.0821 19.8993 17.3477 19.5671 17.662V19.036C19.8471 18.6818 20.1161 18.3821 20.3742 18.1368C20.6322 17.8886 20.8724 17.7003 21.0948 17.5719C21.3308 17.4356 21.5148 17.3878 21.6466 17.4284C21.7783 17.4661 21.8442 17.587 21.8442 17.7912C21.8442 17.9255 21.8072 18.0811 21.733 18.2581C21.6617 18.4335 21.5478 18.6422 21.3913 18.8843L21.1278 19.2902C20.8368 19.7441 20.646 20.0906 20.5554 20.3296C20.4649 20.5657 20.4196 20.8034 20.4196 21.0426V21.2571L21.9061 20.3989V20.2019C21.9061 20.0706 21.9349 19.9344 21.9926 19.7932C22.0502 19.649 22.1724 19.4326 22.359 19.144L22.6226 18.7424Z" fill="#989898"/>
</svg>
