<?xml version="1.0" encoding="UTF-8"?>
<svg width="32px" height="29px" viewBox="0 0 32 29" version="1.1" xmlns="http://www.w3.org/2000/svg" xmlns:xlink="http://www.w3.org/1999/xlink">
    <title>heart</title>
    <g id="Page-1" stroke="none" stroke-width="1" fill="none" fill-rule="evenodd">
        <g id="heart" fill="#000000" fill-rule="nonzero">
            <path d="M27.1196404,1.184 C23.5223371,-0.789752809 18.8415281,-0.102292135 15.9883146,2.73510112 C13.1262921,-0.0968988764 8.45411236,-0.785438202 4.85267416,1.184 C1.86103371,2.83361798 0,5.98417978 0,9.4072809 C0,10.3902921 0.157123596,11.3634157 0.442786517,12.2227416 C1.9687191,19.089618 15.0031461,27.3468764 15.5570337,27.6929438 L15.9883146,27.9633258 L16.4195955,27.6929438 C16.9740225,27.3436404 30.0028764,19.0897978 31.5113708,12.2995056 C31.8200449,11.3537079 31.9766292,10.3827416 31.9766292,9.40620225 C31.9766292,5.98741573 30.1157753,2.83811236 27.1196404,1.184 Z M15.9883146,26.0431461 C13.7238652,24.5564045 3.25770787,17.4247191 2.00323596,11.793618 C1.74651685,11.020764 1.61905618,10.2195056 1.61905618,9.4072809 C1.61905618,9.05042697 1.7098427,8.71658427 1.75694382,8.36853933 C1.8734382,8.71982022 2.00773034,9.12593258 2.18498876,9.58795506 L2.9447191,9.2945618 C2.58516854,8.3694382 2.38310112,7.65465169 2.26426966,7.22768539 L2.20188764,7.01429213 L2.01258427,7.07020225 C2.60422472,5.19820225 3.86426966,3.57591011 5.63541573,2.60170787 C6.36835955,2.19775281 7.16746067,1.96566292 7.98364045,1.81249438 C7.93114607,2.24485393 7.84125843,2.67074157 7.84125843,3.10975281 C7.84125843,4.32161798 8.03505618,5.52233708 8.39406742,6.60170787 C9.66292135,12.3050787 17.7163146,17.9831011 23.1602697,20.6452135 C20.1695281,23.2307416 17.0944719,25.3150562 15.9883146,26.0431461 Z M29.9482247,11.8714607 C29.4085393,14.3137079 27.0669663,17.0382022 24.4418876,19.4707416 C18.9686292,16.9288989 11.1022022,11.317573 9.95649438,6.17366292 C9.62804494,5.1818427 9.46337079,4.14957303 9.46337079,3.11083146 C9.46337079,2.62022472 9.54930337,2.14310112 9.62103371,1.66238202 C11.8464719,1.73141573 13.9313258,2.72647191 15.3697079,4.45177528 L15.9904719,5.19946067 L16.6159101,4.44853933 C18.9441798,1.64620225 23.1237753,0.833977528 26.343191,2.60404494 C28.8226517,3.97123596 30.3595506,6.58103371 30.3595506,9.40961798 C30.3554157,10.2106966 30.2261573,11.0142921 29.9482247,11.8714607 Z M28.5339326,9.40817978 C28.5339326,10.0179775 28.4341573,10.6310112 28.2338876,11.2253483 C28.1790562,11.3948764 28.0237303,11.5045393 27.8529438,11.5045393 C27.8092584,11.5045393 27.7697079,11.4957303 27.7260225,11.4815281 C27.5135281,11.413573 27.3988315,11.1838202 27.4698427,10.9713258 C27.6373933,10.4580674 27.7260225,9.93024719 27.7260225,9.40710112 C27.7260225,7.53294382 26.7068764,5.80997753 25.0746966,4.90570787 C24.2953708,4.48089888 23.4590562,4.26642697 22.5875056,4.26642697 C22.3631461,4.26642697 22.1858876,4.08467416 22.1858876,3.86139326 C22.1858876,3.63811236 22.3631461,3.45635955 22.5875056,3.45635955 C23.5947865,3.45635955 24.5657528,3.70606742 25.4621124,4.19739326 C27.361618,5.24404494 28.5339326,7.23865169 28.5339326,9.40817978 Z M5.8538427,6.42642697 C5.48602247,5.46319101 5.27640449,4.72647191 5.15433708,4.28746067 L5.09357303,4.08269663 L5.86750562,3.85276404 L5.93204494,4.06525843 C6.04979775,4.49096629 6.25276404,5.20808989 6.6101573,6.13303371 L5.8538427,6.42642697 Z M7.58435955,8.31370787 C7.94444944,9.01644944 8.34804494,9.71164045 8.77806742,10.3814831 L8.09995506,10.8204944 C7.65501124,10.1285393 7.23559551,9.4094382 6.86453933,8.68152809 L7.58435955,8.31370787 Z M10.1537079,12.3333034 C10.6293933,12.944 11.1460674,13.5615281 11.6994157,14.1614382 L11.1000449,14.7075955 C10.538427,14.0913258 10.0037753,13.4586966 9.51388764,12.8291236 L10.1537079,12.3333034 Z M19.1174831,20.2117753 L18.6926742,20.8979775 C18.0095281,20.4753258 17.3209888,20.0199551 16.6484494,19.5428315 L17.1164045,18.8837753 C17.7752809,19.351191 18.446382,19.7968539 19.1174831,20.2117753 Z M14.6971685,18.0650787 C14.0611236,17.5518202 13.4349663,17.0097978 12.8395506,16.4559101 L13.3912809,15.8624719 C13.9741124,16.4034157 14.5860674,16.9353708 15.2023371,17.436764 L14.6971685,18.0650787 Z M3.91676404,11.4761348 C4.2741573,12.1788764 4.68044944,12.8738876 5.10831461,13.5428315 L4.43020225,13.9829213 C3.98525843,13.2911461 3.56710112,12.5707865 3.19604494,11.8450337 L3.91676404,11.4761348 Z M6.48593258,15.4959101 C6.95874157,16.1066067 7.47829213,16.7230562 8.0305618,17.3227865 L7.43119101,17.8680449 C6.86957303,17.2505169 6.33492135,16.6189663 5.84611236,15.989573 L6.48593258,15.4959101 Z M9.72458427,19.0250787 C10.3052584,19.5671011 10.9150562,20.0979775 11.5334831,20.5981124 L11.0283146,21.2276854 C10.391191,20.7153258 9.76719101,20.1734831 9.17069663,19.6163596 L9.72458427,19.0250787 Z M13.4470112,22.0453034 C14.1069663,22.5116404 14.7786067,22.9582022 15.4491685,23.3752809 L15.0222022,24.0614831 C14.3403146,23.6388315 13.6499775,23.182382 12.9794157,22.7063371 L13.4470112,22.0453034 Z" id="Shape"></path>
        </g>
    </g>
</svg>