<?xml version="1.0" encoding="UTF-8"?>
<svg width="32px" height="32px" viewBox="0 0 32 32" version="1.1" xmlns="http://www.w3.org/2000/svg" xmlns:xlink="http://www.w3.org/1999/xlink">
    <title>movies</title>
    <g id="Page-1" stroke="none" stroke-width="1" fill="none" fill-rule="evenodd">
        <g id="movies" fill="#000000" fill-rule="nonzero">
            <path d="M11.6581333,0.00549333333 C11.517744,0.0253754667 11.3910507,0.100341333 11.306048,0.213824 C11.129312,0.449664 11.17736,0.784117333 11.4133387,0.960704 L14.399792,3.20027733 L1.599792,3.20027733 C0.722618667,3.20027733 -0.000208,3.923104 -0.000208,4.80027733 L-0.000208,21.866944 C-0.000208,22.7441173 0.722618667,23.466944 1.599792,23.466944 L4.83520533,23.466944 C4.97839467,25.6430507 5.59488533,27.656384 7.08416533,29.183744 C8.814192,30.957824 11.6485387,32.000384 15.9998987,32.000384 C20.3512587,32.000384 23.1854987,30.957824 24.915632,29.183744 C26.404912,27.6565973 27.021392,25.6432107 27.164592,23.466944 L30.4000053,23.466944 C31.2771787,23.466944 32.0000053,22.7441173 32.0000053,21.866944 L32.0000053,4.80027733 C32.0000053,3.923104 31.2771787,3.20027733 30.4000053,3.20027733 L17.6000053,3.20027733 L20.5864587,0.960704 C20.8224373,0.784154667 20.8704853,0.449674667 20.6937493,0.213824 C20.5171947,-0.0221546667 20.1827147,-0.0702026667 19.9468693,0.106533333 L15.9999893,3.06690667 L12.0531093,0.106533333 C11.9400747,0.0219253333 11.7981013,-0.0144106667 11.65832,0.00549333333 L11.6581333,0.00549333333 Z M1.6,4.26693333 L30.4,4.26693333 C30.7046933,4.26693333 30.9333333,4.49557333 30.9333333,4.80026133 L30.9333333,21.866928 C30.9333333,22.171616 30.7046933,22.400256 30.4,22.400256 L27.2,22.400256 C27.2,21.5229227 26.4773333,20.800256 25.6,20.800256 L24,20.800256 C24,19.6283627 23.03856,18.6669227 21.8666667,18.6669227 C21.4611467,18.6669227 21.08128,18.7823733 20.75728,18.981504 C20.3161653,18.464176 19.66176,18.1336107 18.9333333,18.1336107 C18.2050133,18.1336107 17.5505067,18.4643573 17.1093867,18.981504 C16.7853867,18.7823733 16.4055467,18.6669227 16,18.6669227 C15.5944533,18.6669227 15.2146133,18.7823733 14.8906133,18.981504 C14.4494987,18.464176 13.7950933,18.1336107 13.0666667,18.1336107 C12.3383467,18.1336107 11.68384,18.4643573 11.24272,18.981504 C10.91872,18.7823733 10.53888,18.6669227 10.1333333,18.6669227 C8.96144,18.6669227 8,19.6283627 8,20.800256 L6.4,20.800256 C5.52266667,20.800256 4.8,21.5229227 4.8,22.400256 L1.6,22.400256 C1.29530667,22.400256 1.06666667,22.171616 1.06666667,21.866928 L1.06666667,4.80026133 C1.06666667,4.49557333 1.29530667,4.26693333 1.6,4.26693333 Z M13.0666661,9.19397333 L13.0666661,15.3395733 C13.0666661,16.52912 14.5008533,17.2321067 15.4416533,16.50416 L19.45104,13.40208 C20.1834133,12.83536 20.1834133,11.6979733 19.45104,11.1312533 L15.4416533,8.02917333 C14.4733333,7.29786667 13.0656,8.03344 13.0666661,9.19376 L13.0666661,9.19397333 Z M14.7885333,8.87314133 L18.79792,11.9752213 C18.9992107,12.130976 18.9992107,12.4027947 18.79792,12.558528 L14.7885333,15.660608 C14.4938933,15.8885973 14.1333333,15.7123205 14.1333333,15.339776 L14.1333333,9.194176 C14.1677067,8.717264 14.5833547,8.700816 14.7885333,8.873344 L14.7885333,8.87314133 Z M13.0666667,19.2000747 C13.5144,19.2000747 13.90576,19.4158133 14.14688,19.7490347 C13.9691147,20.0599467 13.866672,20.418688 13.866672,20.8000747 L12.266672,20.8000747 C12.266672,20.418704 12.1642293,20.059968 11.986464,19.7490347 C12.227584,19.415824 12.618944,19.2000747 13.0666773,19.2000747 L13.0666667,19.2000747 Z M18.9333333,19.2000747 C19.3810667,19.2000747 19.7724267,19.4158133 20.0135467,19.7490347 C19.8357813,20.0599467 19.7333387,20.418688 19.7333387,20.8000747 L18.1333387,20.8000747 C18.1333387,20.418704 18.030896,20.059968 17.8531307,19.7490347 C18.0942507,19.415824 18.4856107,19.2000747 18.933344,19.2000747 L18.9333333,19.2000747 Z M10.1333333,19.7334027 C10.7287467,19.7334027 11.2,20.2046453 11.2,20.8000693 L9.06666667,20.8000693 C9.06666667,20.204656 9.53791467,19.7334027 10.1333333,19.7334027 Z M16,19.7334027 C16.5954133,19.7334027 17.0666667,20.2046453 17.0666667,20.8000693 L14.9333333,20.8000693 C14.9333333,20.204656 15.4045813,19.7334027 16,19.7334027 Z M21.8666667,19.7334027 C22.46208,19.7334027 22.9333333,20.2046453 22.9333333,20.8000693 L20.8,20.8000693 C20.8,20.204656 21.271248,19.7334027 21.8666667,19.7334027 Z M6.4,21.866736 L25.6,21.866736 C25.9008693,21.866736 26.1333333,22.0992 26.1333333,22.400064 C26.1333333,24.8280107 25.6209867,26.9312107 24.15104,28.438464 C22.68112,29.945824 20.18208,30.9332373 16.0001067,30.9332373 C11.8181333,30.9332373 9.31904,29.945824 7.84917333,28.438464 C6.37925333,26.931104 5.86688,24.827904 5.86688,22.400064 C5.86688,22.0992 6.099344,21.866736 6.40021333,21.866736 L6.4,21.866736 Z" id="Shape"></path>
        </g>
    </g>
</svg>