<svg width="33" height="33" viewBox="0 0 33 33" fill="none" xmlns="http://www.w3.org/2000/svg">
<path fill-rule="evenodd" clip-rule="evenodd" d="M32.0999 16.0499C32.0999 24.9141 24.9141 32.0999 16.0499 32.0999C7.1858 32.0999 0 24.9141 0 16.0499C0 7.1858 7.1858 0 16.0499 0C24.9141 0 32.0999 7.1858 32.0999 16.0499ZM7 8.27243C7 7.72015 7.44772 7.27243 8 7.27243H24C24.5523 7.27243 25 7.72015 25 8.27243V23.2724C25 23.8247 24.5523 24.2724 24 24.2724H8C7.44772 24.2724 7 23.8247 7 23.2724V8.27243ZM29 7.27243H26V9.27243H29V7.27243ZM26 10.2724H29V12.2724H26V10.2724ZM29 13.2724H26V15.2724H29V13.2724ZM26 16.2724H29V18.2724H26V16.2724ZM29 19.2724H26V21.2724H29V19.2724ZM26 22.2724H29V24.2724H26V22.2724ZM6 7.27243H3V9.27243H6V7.27243ZM3 10.2724H6V12.2724H3V10.2724ZM6 13.2724H3V15.2724H6V13.2724ZM3 16.2724H6V18.2724H3V16.2724ZM6 19.2724H3V21.2724H6V19.2724ZM3 22.2724H6V24.2724H3V22.2724ZM14 19.7365L20 16.2724L14 12.8083V19.7365Z" fill="#989898"/>
</svg>
