<?xml version="1.0" encoding="UTF-8"?>
<svg width="32px" height="27px" viewBox="0 0 32 27" version="1.1" xmlns="http://www.w3.org/2000/svg" xmlns:xlink="http://www.w3.org/1999/xlink">
    <title>serials</title>
    <g id="Page-1" stroke="none" stroke-width="1" fill="none" fill-rule="evenodd">
        <g id="serials" fill="#000000" fill-rule="nonzero">
            <path d="M30,22.6666667 L2,22.6666667 C0.897333333,22.6666667 0,21.7693333 0,20.6666667 L0,2 C0,0.897333333 0.897333333,0 2,0 L30,0 C31.1026667,0 32,0.897333333 32,2 L32,20.6666667 C32,21.7693333 31.1026667,22.6666667 30,22.6666667 Z M2,1.33333333 C1.63333333,1.33333333 1.33333333,1.632 1.33333333,2 L1.33333333,20.6666667 C1.33333333,21.0346667 1.63333333,21.3333333 2,21.3333333 L30,21.3333333 C30.3666667,21.3333333 30.6666667,21.0346667 30.6666667,20.6666667 L30.6666667,2 C30.6666667,1.632 30.3666667,1.33333333 30,1.33333333 L2,1.33333333 Z" id="Shape"></path>
            <path d="M20.6666667,26.6666667 L11.3333333,26.6666667 C11.064,26.6666667 10.82,26.504 10.7173333,26.2546667 C10.6146667,26.0053333 10.672,25.7186667 10.8613333,25.528 C12.616,23.7733333 12.64,22.0746667 12.64,22.0026667 C12.6413333,21.636 12.9373333,21.336 13.3026667,21.3346667 L13.3066667,21.3346667 C13.6706667,21.3346667 13.968,21.6253333 13.9733333,21.9906667 C13.9746667,22.068 13.9773333,23.584 12.76,25.332 L19.236,25.332 C18.016,23.588 17.9986667,22.076 17.9986667,21.9986667 C17.9986667,21.6306667 18.2973333,21.332 18.6653333,21.332 C19.032,21.332 19.3293333,21.628 19.332,21.9946667 C19.3333333,22.0786667 19.3853333,23.776 21.1373333,25.5266667 C21.328,25.7173333 21.3853333,26.004 21.2813333,26.2533333 C21.1773333,26.5026667 20.936,26.6666667 20.6666667,26.6666667 L20.6666667,26.6666667 Z" id="Shape"></path>
            <path d="M31.3333333,18.6666667 L0.666666667,18.6666667 C0.298666667,18.6666667 0,18.368 0,18 C0,17.632 0.298666667,17.3333333 0.666666667,17.3333333 L31.3333333,17.3333333 C31.7013333,17.3333333 32,17.632 32,18 C32,18.368 31.7013333,18.6666667 31.3333333,18.6666667 Z" id="Path"></path>
            <path d="M9.33333333,9.33333333 C7.86266667,9.33333333 6.66666667,8.13733333 6.66666667,6.66666667 C6.66666667,5.196 7.86266667,4 9.33333333,4 C10.804,4 12,5.196 12,6.66666667 C12,8.13733333 10.804,9.33333333 9.33333333,9.33333333 Z M9.33333333,5.33333333 C8.59733333,5.33333333 8,5.932 8,6.66666667 C8,7.40133333 8.59733333,8 9.33333333,8 C10.0693333,8 10.6666667,7.40133333 10.6666667,6.66666667 C10.6666667,5.932 10.0693333,5.33333333 9.33333333,5.33333333 Z" id="Shape"></path>
            <path d="M14,16 C13.632,16 13.3333333,15.7013333 13.3333333,15.3333333 L13.3333333,14 C13.3333333,12.8973333 12.436,12 11.3333333,12 L7.33333333,12 C6.23066667,12 5.33333333,12.8973333 5.33333333,14 L5.33333333,15.3333333 C5.33333333,15.7013333 5.03466667,16 4.66666667,16 C4.29866667,16 4,15.7013333 4,15.3333333 L4,14 C4,12.1626667 5.49466667,10.6666667 7.33333333,10.6666667 L11.3333333,10.6666667 C13.172,10.6666667 14.6666667,12.1626667 14.6666667,14 L14.6666667,15.3333333 C14.6666667,15.7013333 14.368,16 14,16 Z" id="Path"></path>
            <path d="M22.6666667,9.33333333 C21.196,9.33333333 20,8.13733333 20,6.66666667 C20,5.196 21.196,4 22.6666667,4 C24.1373333,4 25.3333333,5.196 25.3333333,6.66666667 C25.3333333,8.13733333 24.1373333,9.33333333 22.6666667,9.33333333 Z M22.6666667,5.33333333 C21.9306667,5.33333333 21.3333333,5.932 21.3333333,6.66666667 C21.3333333,7.40133333 21.9306667,8 22.6666667,8 C23.4026667,8 24,7.40133333 24,6.66666667 C24,5.932 23.4026667,5.33333333 22.6666667,5.33333333 Z" id="Shape"></path>
            <path d="M27.3333333,16 C26.9653333,16 26.6666667,15.7013333 26.6666667,15.3333333 L26.6666667,14 C26.6666667,12.8973333 25.7693333,12 24.6666667,12 L20.6666667,12 C19.564,12 18.6666667,12.8973333 18.6666667,14 L18.6666667,15.3333333 C18.6666667,15.7013333 18.368,16 18,16 C17.632,16 17.3333333,15.7013333 17.3333333,15.3333333 L17.3333333,14 C17.3333333,12.1626667 18.828,10.6666667 20.6666667,10.6666667 L24.6666667,10.6666667 C26.5053333,10.6666667 28,12.1626667 28,14 L28,15.3333333 C28,15.7013333 27.7013333,16 27.3333333,16 Z" id="Path"></path>
        </g>
    </g>
</svg>