<svg width="40" height="33" viewBox="0 0 40 33" fill="none" xmlns="http://www.w3.org/2000/svg">
<path fill-rule="evenodd" clip-rule="evenodd" d="M32.0999 16.0499C32.0999 24.9141 24.9141 32.0999 16.0499 32.0999C7.1858 32.0999 0 24.9141 0 16.0499C0 7.1858 7.1858 0 16.0499 0C24.9141 0 32.0999 7.1858 32.0999 16.0499ZM10.6999 22.1133C10.6999 24.0831 9.1031 25.6799 7.13329 25.6799C5.16349 25.6799 3.56664 24.0831 3.56664 22.1133C3.56664 20.1434 5.16349 18.5466 7.13329 18.5466C9.1031 18.5466 10.6999 20.1434 10.6999 22.1133ZM25.6799 25.6799C27.6497 25.6799 29.2466 24.0831 29.2466 22.1133C29.2466 20.1434 27.6497 18.5466 25.6799 18.5466C23.7101 18.5466 22.1132 20.1434 22.1132 22.1133C22.1132 24.0831 23.7101 25.6799 25.6799 25.6799ZM10.6999 10.7C10.6999 12.6698 9.1031 14.2666 7.13329 14.2666C5.16349 14.2666 3.56664 12.6698 3.56664 10.7C3.56664 8.73018 5.16349 7.13333 7.13329 7.13333C9.1031 7.13333 10.6999 8.73018 10.6999 10.7ZM25.6799 14.2666C27.6497 14.2666 29.2466 12.6698 29.2466 10.7C29.2466 8.73018 27.6497 7.13333 25.6799 7.13333C23.7101 7.13333 22.1132 8.73018 22.1132 10.7C22.1132 12.6698 23.7101 14.2666 25.6799 14.2666ZM19.9733 4.99331C19.9733 6.96312 18.3764 8.55997 16.4066 8.55997C14.4368 8.55997 12.84 6.96312 12.84 4.99331C12.84 3.0235 14.4368 1.42666 16.4066 1.42666C18.3764 1.42666 19.9733 3.0235 19.9733 4.99331ZM16.4066 31.3866C18.3764 31.3866 19.9733 29.7897 19.9733 27.8199C19.9733 25.8501 18.3764 24.2533 16.4066 24.2533C14.4368 24.2533 12.84 25.8501 12.84 27.8199C12.84 29.7897 14.4368 31.3866 16.4066 31.3866ZM18.5466 16.4067C18.5466 17.5885 17.5885 18.5466 16.4066 18.5466C15.2247 18.5466 14.2666 17.5885 14.2666 16.4067C14.2666 15.2248 15.2247 14.2667 16.4066 14.2667C17.5885 14.2667 18.5466 15.2248 18.5466 16.4067ZM35.6665 6.06333C37.6876 11.0566 38.5198 23.1833 25.6799 31.7432C37.4498 26.0366 41.3732 16.05 39.5898 6.06333H35.6665Z" fill="#989898"/>
</svg>
