<svg width="33" height="33" viewBox="0 0 33 33" fill="none" xmlns="http://www.w3.org/2000/svg">
<path fill-rule="evenodd" clip-rule="evenodd" d="M16.05 32.3723C24.9141 32.3723 32.0999 25.1866 32.0999 16.3224C32.0999 7.45825 24.9141 0.272461 16.05 0.272461C7.18579 0.272461 0 7.45825 0 16.3224C0 25.1866 7.18579 32.3723 16.05 32.3723ZM8.32751 10.6827C9.16 9.8222 10.2625 9.27246 11.5 9.27246C12.76 9.27246 13.8625 9.8222 14.6725 10.6827C15.4825 11.567 16 12.7383 16 14.0529C16 12.7144 16.5175 11.5432 17.3275 10.6827C18.16 9.8222 19.2625 9.27246 20.5 9.27246C21.76 9.27246 22.8625 9.8222 23.6725 10.6827C24.4825 11.567 25 12.7383 25 14.0529C25 15.3914 24.4825 16.5626 23.6725 17.4231L16 25.5737L8.32751 17.4231C7.51749 16.5387 7 15.3675 7 14.0529C7 12.7144 7.51749 11.5432 8.32751 10.6827Z" fill="#989898"/>
</svg>
